<?xml version="1.0" encoding="utf-8"?>
<!-- Generator: Adobe Illustrator 25.0.0, SVG Export Plug-In . SVG Version: 6.00 Build 0)  -->
<svg version="1.1" id="Layer_1" xmlns="http://www.w3.org/2000/svg" xmlns:xlink="http://www.w3.org/1999/xlink" x="0px" y="0px"
	 viewBox="0 0 100 99.7" style="enable-background:new 0 0 100 99.7;" xml:space="preserve">
<style type="text/css">
	.st0{fill:#696969;}
</style>
<path class="st0" d="M90.3,40.6L65,41.1l-7-12.6h3c2.7,0,4.9-2.2,4.9-4.9l0,0c0-2.7-2.2-4.9-4.9-4.9h-8.6L45,5.1
	c-0.5-0.9-1.6-1.6-2.7-1.6H35c-0.9,0-1.7,0.9-1.4,1.9l12.1,36L14.3,42L11,34.4c-0.5-1.2-1.6-1.9-2.8-1.9H1.4c-0.9,0-1.6,0.8-1.4,1.7
	l3.4,15.5L0,65.3C-0.2,66.2,0.6,67,1.4,67h6.8c1.3,0,2.3-0.7,2.8-1.9l3.3-7.6l31.3,0.6l-12,36.1c-0.3,0.9,0.4,1.9,1.4,1.9h7.3
	c1.2,0,2.1-0.6,2.7-1.6l7.6-13.4h8.6c2.7,0,4.9-2.2,4.9-4.9s-2.2-4.9-4.9-4.9h-3l7-12.6l25.3,0.5c5.1,0.1,9.4-4.1,9.4-9.2
	C99.8,44.7,95.5,40.5,90.3,40.6z"/>
</svg>
