<?xml version="1.0" encoding="utf-8"?>
<!-- Generator: Adobe Illustrator 25.0.0, SVG Export Plug-In . SVG Version: 6.00 Build 0)  -->
<svg version="1.1" id="Layer_1" xmlns="http://www.w3.org/2000/svg" xmlns:xlink="http://www.w3.org/1999/xlink" x="0px" y="0px"
	 viewBox="0 0 100 100" style="enable-background:new 0 0 100 100;" xml:space="preserve">
<style type="text/css">
	.st0{fill:#696969;}
</style>
<g>
	<path class="st0" d="M80.89,62.86c4.35,0,8.55,0,12.89,0c0-2.52,0-5.01,0-7.57c2.13,0,4.12,0,6.22,0c0,5.02,0,10.04,0,15.16
		c-0.36,0.02-0.72,0.05-1.08,0.05c-12.84,0-25.69,0-38.53,0c-1.69,0-1.96-0.23-2.26-1.85c-1.5-8.19-8.81-14.24-17.15-14.2
		c-8.33,0.05-15.62,6.2-17.02,14.37c-0.24,1.41-0.55,1.67-1.99,1.68c-2.94,0-5.89-0.08-8.83,0.02C6.31,70.74-0.08,65.13,0,57.4
		c0.07-6.92,0.01-13.84,0.02-20.77c0-2.74-0.08-5.49,0.08-8.22c0.36-6.28,5.73-11.57,12.02-11.67c8.19-0.13,16.39-0.05,24.58-0.05
		c10.37,0,20.74-0.01,31.11,0.01c6.52,0.01,11.67,4.21,12.81,10.6c0.32,1.82,0.21,3.73,0.22,5.6c0.02,9.63,0,19.26,0,28.89
		C80.84,62.12,80.87,62.45,80.89,62.86z M24.33,43.63c3.75,0,7.49,0,11.24,0c1.95,0,2.97-0.98,2.98-2.96
		c0.02-3.18,0.02-6.35-0.01-9.53c-0.02-2.03-1.03-3.01-3.04-3.01c-7.42,0-14.85,0-22.27,0c-1.97,0-3.01,0.98-3.02,2.92
		c-0.03,3.21-0.03,6.42-0.01,9.63c0.01,1.96,1.04,2.94,3,2.94C16.9,43.63,20.62,43.63,24.33,43.63z M61.5,43.63
		c1.74,0,3.47,0.02,5.21,0c1.56-0.02,2.64-1.09,2.65-2.66c0.02-3.37,0.02-6.75,0-10.12c-0.01-1.61-1.09-2.7-2.71-2.71
		c-3.37-0.02-6.75-0.03-10.12,0c-1.55,0.01-2.65,1.12-2.66,2.67c-0.03,3.37-0.03,6.75,0,10.12c0.01,1.61,1.11,2.68,2.73,2.7
		C58.23,43.64,59.87,43.63,61.5,43.63z"/>
	<path class="st0" d="M41,83.33c-6.37-0.02-11.47-5.16-11.43-11.5c0.05-6.43,5.17-11.53,11.56-11.52
		c6.28,0.02,11.46,5.23,11.46,11.55C52.6,78.23,47.42,83.36,41,83.33z M41.06,66.66c-2.83,0-5.16,2.34-5.18,5.17
		c-0.01,2.88,2.34,5.21,5.25,5.19c2.81-0.02,5.11-2.32,5.13-5.11C46.28,69.03,43.93,66.66,41.06,66.66z"/>
</g>
</svg>
