<?xml version="1.0" encoding="utf-8"?>
<!-- Generator: Adobe Illustrator 25.0.0, SVG Export Plug-In . SVG Version: 6.00 Build 0)  -->
<svg version="1.1" id="Layer_1" xmlns="http://www.w3.org/2000/svg" xmlns:xlink="http://www.w3.org/1999/xlink" x="0px" y="0px"
	 viewBox="0 0 100 99.7" style="enable-background:new 0 0 100 99.7;" xml:space="preserve">
<style type="text/css">
	.st0{fill:#696969;}
</style>
<g transform="translate(0,-952.36218)">
	<path class="st0" d="M7.5,972.9c-1,0-1.9,0.2-2.8,0.5l42.4,37.1c1.8,1.6,3.8,1.6,5.6,0l42.5-37.1c-0.9-0.3-1.8-0.5-2.8-0.5H7.5z
		 M0.1,979.4c0,0.3-0.1,0.7-0.1,1.1v50c0,4.2,3.3,7.5,7.5,7.5h85c4.2,0,7.5-3.3,7.5-7.5v-50c0-0.4,0-0.7-0.1-1.1l-42.2,36.8
		c-4.4,3.8-11.1,3.8-15.5,0L0.1,979.4z"/>
</g>
</svg>
