<?xml version="1.0" encoding="utf-8"?>
<!-- Generator: Adobe Illustrator 25.0.0, SVG Export Plug-In . SVG Version: 6.00 Build 0)  -->
<svg version="1.1" id="Layer_1" xmlns="http://www.w3.org/2000/svg" xmlns:xlink="http://www.w3.org/1999/xlink" x="0px" y="0px"
	 viewBox="0 0 100 99.98" style="enable-background:new 0 0 100 99.98;" xml:space="preserve">
<style type="text/css">
	.st0{fill:#696969;}
</style>
<path class="st0" d="M65.31,99.97c0-11.94,0-23.67,0-35.57c0.57-0.03,1.11-0.07,1.65-0.07c3.42-0.01,6.84,0.01,10.26-0.01
	c1.63-0.01,2.47-0.72,2.67-2.33c0.44-3.54,0.88-7.07,1.25-10.62c0.22-2.16-0.71-3.15-2.88-3.16c-3.73-0.02-7.45-0.01-11.18-0.01
	c-0.55,0-1.1,0-1.54,0c0-4.33-0.2-8.5,0.08-12.63c0.17-2.47,2.43-3.92,5.38-4.03c2.19-0.08,4.39-0.03,6.59-0.05
	c2.28-0.02,3.13-0.85,3.15-3.15c0.02-2.76,0.03-5.51,0-8.27c-0.02-2.18-0.8-3.01-2.98-2.97c-4.53,0.1-9.12-0.11-13.58,0.55
	c-7.88,1.15-13.49,7.07-14.36,14.96c-0.49,4.44-0.29,8.96-0.39,13.44c-0.02,0.65,0,1.3,0,2.15c-2.85,0-5.53,0-8.22,0
	c-2.55,0-3.37,0.82-3.36,3.41c0.01,3.27,0.03,6.53,0.09,9.8c0.04,2.22,0.77,2.9,2.99,2.91c2.75,0.01,5.51,0,8.39,0
	c0,11.86,0,23.62,0,35.56c-0.5,0.03-1.04,0.08-1.58,0.08c-11.28,0-22.57,0.01-33.85,0C5.77,99.96,0,94.17,0,86.08
	C0,61.98,0,37.89,0,13.8C0,5.81,5.82,0,13.82,0c24.15,0,48.3,0,72.45,0c7.8,0,13.71,5.82,13.72,13.59c0.02,24.3,0.02,48.59,0,72.89
	c-0.01,7.58-5.92,13.45-13.52,13.48c-6.54,0.03-13.07,0.01-19.61,0.01C66.4,99.97,65.95,99.97,65.31,99.97z"/>
</svg>
