<?xml version="1.0" encoding="utf-8"?>
<!-- Generator: Adobe Illustrator 25.0.0, SVG Export Plug-In . SVG Version: 6.00 Build 0)  -->
<svg version="1.1" id="Layer_1" xmlns="http://www.w3.org/2000/svg" xmlns:xlink="http://www.w3.org/1999/xlink" x="0px" y="0px"
	 viewBox="0 0 100 100" style="enable-background:new 0 0 100 100;" xml:space="preserve">
<style type="text/css">
	.st0{fill:#696969;}
</style>
<path class="st0" d="M100,13.6c0-0.1,0-0.2,0-0.3"/>
<path class="st0" d="M57,100.3c0-14.5,0-28.8,0-43.2c0.7,0,1.3-0.1,2-0.1c4.2,0,8.3,0,12.5,0c2,0,3-0.9,3.2-2.8
	c0.5-4.3,1.1-8.6,1.5-12.9c0.3-2.6-0.9-3.8-3.5-3.8c-4.5,0-9.1,0-13.6,0c-0.7,0-1.3,0-1.9,0c0-5.3-0.2-10.3,0.1-15.3
	c0.2-3,3-4.8,6.5-4.9c2.7-0.1,5.3,0,8-0.1c2.8,0,3.8-1,3.8-3.8c0-3.4,0-6.7,0-10c0-2.6-1-3.7-3.6-3.6c-5.5,0.1-11.1-0.1-16.5,0.7
	c-9.6,1.4-16.4,8.6-17.4,18.2c-0.6,5.4-0.4,10.9-0.5,16.3c0,0.8,0,1.6,0,2.6c-3.5,0-6.7,0-10,0c-3.1,0-4.1,1-4.1,4.1
	c0,4,0,7.9,0.1,11.9c0,2.7,0.9,3.5,3.6,3.5c3.3,0,6.7,0,10.2,0c0,14.4,0,28.7,0,43.2L57,100.3z"/>
</svg>
