<?xml version="1.0" encoding="utf-8"?>
<!-- Generator: Adobe Illustrator 25.0.0, SVG Export Plug-In . SVG Version: 6.00 Build 0)  -->
<svg version="1.1" id="Layer_1" xmlns="http://www.w3.org/2000/svg" xmlns:xlink="http://www.w3.org/1999/xlink" x="0px" y="0px"
	 viewBox="0 0 100 76.24" style="enable-background:new 0 0 100 76.24;" xml:space="preserve">
<style type="text/css">
	.st0{fill:#C10E1A;}
</style>
<path class="st0" d="M0,46.78c0.15-1.41,0.28-2.83,0.46-4.24c0.56-4.42,1.97-8.56,4.11-12.47C9.3,21.45,16.05,14.78,24.38,9.66
	c5.67-3.49,11.72-6.18,17.96-8.47C43.47,0.78,44.6,0.4,45.74,0c0.03-0.01,0.08,0,0.17,0.01c0.02,0.14,0.05,0.29,0.05,0.43
	c0,2.99-0.01,5.99,0,8.98c0,0.31-0.09,0.45-0.39,0.57c-5.89,2.27-11.25,5.43-16.06,9.52c-4.2,3.57-6.79,8.15-8.05,13.5
	c-0.01,0.06,0,0.12,0,0.23c0.7,0.05,1.39,0.11,2.08,0.15c6.16,0.4,11.87,2.11,16.77,5.96c3.24,2.54,5.02,6.02,5.87,10.01
	c0.6,2.85,0.79,5.72,0.46,8.61c-0.6,5.38-2.98,9.79-7.34,13.09c-3.34,2.53-7.05,4.19-11.18,4.85c-2.53,0.4-5.07,0.42-7.62,0.19
	c-2.47-0.23-4.86-0.78-7.14-1.77c-3.84-1.66-6.68-4.43-8.79-8c-2.28-3.88-3.74-8.05-4.24-12.53C0.22,52.74,0.11,51.69,0,50.63
	C0,49.35,0,48.06,0,46.78z"/>
<path class="st0" d="M100.42,56.78c-0.19,1.2-0.32,2.42-0.57,3.6c-0.92,4.32-3.2,7.78-6.66,10.48c-3.4,2.66-7.2,4.43-11.48,5.03
	c-5.69,0.8-11.25,0.4-16.42-2.44c-3.04-1.67-5.28-4.15-7.03-7.1c-2.31-3.87-3.7-8.05-4.28-12.52c-0.43-3.31-0.43-6.6-0.09-9.91
	c0.64-6.26,2.85-11.95,6.3-17.2c3.97-6.04,8.96-11.05,14.88-15.16c6.3-4.37,13.23-7.5,20.37-10.19c1.31-0.49,2.64-0.93,3.96-1.39
	c0.03-0.01,0.08,0.01,0.2,0.02c0,0.62,0,1.26,0,1.89c0,2.47-0.01,4.94,0.01,7.41c0,0.42-0.15,0.56-0.53,0.71
	c-4.88,1.91-9.4,4.46-13.6,7.6c-2.51,1.88-4.78,3.98-6.55,6.58c-1.82,2.66-3.03,5.59-3.81,8.7c-0.02,0.09-0.01,0.2-0.02,0.28
	c1.44,0.14,2.88,0.26,4.31,0.42c3.91,0.41,7.59,1.57,11.05,3.42c2.86,1.53,5.32,3.5,7.03,6.32c1.39,2.3,2.23,4.78,2.59,7.43
	c0.13,0.95,0.23,1.9,0.35,2.85C100.42,54.69,100.42,55.74,100.42,56.78z"/>
</svg>
