<?xml version="1.0" encoding="utf-8"?>
<!-- Generator: Adobe Illustrator 25.0.0, SVG Export Plug-In . SVG Version: 6.00 Build 0)  -->
<svg version="1.1" id="Layer_1" xmlns="http://www.w3.org/2000/svg" xmlns:xlink="http://www.w3.org/1999/xlink" x="0px" y="0px"
	 viewBox="0 0 100 99.7" style="enable-background:new 0 0 100 99.7;" xml:space="preserve">
<style type="text/css">
	.st0{fill:#696969;}
</style>
<g>
	<path class="st0" d="M83.8-0.2c-4.2,0-8.4,1.4-11.4,4.4c-3.1,3-4.8,7.5-4.8,12.8c0,6.3,3.5,12.7,6.7,18.1c3.2,5.5,6.4,9.7,6.4,9.7
		c1.5,2.1,4.6,2.1,6.2,0c0,0,3.2-4.3,6.4-9.7c3.2-5.5,6.7-11.8,6.7-18.1c0-5.3-1.7-9.8-4.8-12.8C92.2,1.2,88-0.2,83.8-0.2z
		 M83.8,7.5c4.2,0,7.7,3.5,7.7,7.7s-3.5,7.7-7.7,7.7c-4.2,0-7.7-3.5-7.7-7.7S79.6,7.5,83.8,7.5z M21.4,38.3
		c-5.6,0-11.1,1.7-15.1,5.6S0,53.5,0,60.6C0,68.7,4.8,77.5,9.3,85c4.5,7.5,9,13.3,9,13.3c1.3,1.7,3.7,2,5.4,0.7
		c0.3-0.2,0.5-0.4,0.7-0.7c0,0,4.5-5.9,9-13.3c4.5-7.5,9.3-16.3,9.3-24.4c0-7.1-2.3-12.9-6.3-16.7S27,38.3,21.4,38.3z M76.8,46
		c-0.1,0-0.1,0-0.2,0c0,0-6.7,0.5-13.7,2.2c-3.5,0.9-7,2.1-10,4c-3,1.9-5.8,5-5.8,9.2c0,3.9,2.6,7,5.3,8.7c2.7,1.6,5.6,2.4,8.3,3.4
		c2.7,0.9,5.1,1.9,6.4,3c1.4,1.1,2,1.9,2,4.2c0,1.5-1,2.9-4.1,4.7c-3,1.7-7.6,3.2-12.2,4.3c-9.2,2.1-18.6,2.6-18.6,2.6
		c-2.1,0-3.9,1.7-3.9,3.8c0,2.1,1.7,3.9,3.8,3.9c0.2,0,0.4,0,0.5,0c0,0,9.8-0.5,19.9-2.8c5-1.1,10.1-2.7,14.3-5.1
		c4.2-2.4,7.9-6.2,7.9-11.4c0-4.4-2.2-8-4.9-10.2c-2.7-2.2-5.9-3.3-8.7-4.3c-2.8-1-5.4-1.8-6.9-2.7c-1.4-0.9-1.6-1-1.6-2
		c0-0.7,0.4-1.5,2.2-2.7c1.8-1.2,4.8-2.3,7.8-3c6-1.6,12.3-2,12.3-2c2.1-0.2,3.7-2,3.6-4.1C80.6,47.5,78.9,46,76.8,46z M21.4,49.8
		c5.2,0,9.4,4.1,9.4,9.1c0,0,0,0,0,0c0,5-4.2,9.1-9.4,9.1c-5.2,0-9.4-4.1-9.4-9.1C12,53.9,16.2,49.8,21.4,49.8
		C21.4,49.8,21.4,49.8,21.4,49.8z"/>
</g>
</svg>
