<?xml version="1.0" encoding="utf-8"?>
<!-- Generator: Adobe Illustrator 25.0.0, SVG Export Plug-In . SVG Version: 6.00 Build 0)  -->
<svg version="1.1" id="Layer_1" xmlns="http://www.w3.org/2000/svg" xmlns:xlink="http://www.w3.org/1999/xlink" x="0px" y="0px"
	 viewBox="0 0 100 99.98" style="enable-background:new 0 0 100 99.98;" xml:space="preserve">
<style type="text/css">
	.st0{fill:#696969;}
</style>
<path class="st0" d="M86.41-0.01H13.59C6.08-0.01,0,6.08,0,13.58V86.4c0,7.51,6.08,13.59,13.59,13.59h72.82
	c7.51,0,13.59-6.08,13.59-13.59V13.58C100,6.08,93.92-0.01,86.41-0.01z M80.91,34.14c0.03,0.68,0.05,1.37,0.05,2.06
	c0,21.08-16.04,45.38-45.38,45.38c-9.01,0-17.39-2.64-24.45-7.17c1.25,0.15,2.52,0.22,3.8,0.22c7.47,0,14.35-2.55,19.81-6.83
	c-6.98-0.13-12.87-4.74-14.9-11.08c0.97,0.19,1.97,0.29,3,0.29c1.45,0,2.86-0.2,4.2-0.56c-7.3-1.47-12.79-7.91-12.79-15.64
	c0-0.07,0-0.13,0-0.2c2.15,1.19,4.61,1.91,7.22,1.99c-4.28-2.86-7.1-7.74-7.1-13.28c0-2.92,0.79-5.66,2.16-8.02
	c7.87,9.65,19.62,16,32.87,16.66C49.14,36.82,49,35.6,49,34.35c0-8.81,7.14-15.95,15.95-15.95c4.59,0,8.73,1.94,11.64,5.04
	c3.63-0.72,7.05-2.04,10.13-3.87c-1.19,3.72-3.72,6.85-7.01,8.82c3.23-0.39,6.3-1.24,9.16-2.51C86.73,29.08,84.03,31.89,80.91,34.14
	z"/>
</svg>
